# xmcd CD database file
#
# Track frame offsets:
#	187
#	16075
#	31137
#	43495
#	57265
#	67780
#	78745
#	92032
#	113972
#	128910
#
# Disc length: 1887 seconds
#
# Revision: 2
# Processed by: cddbd v1.4PL0 Copyright (c) Steve Scherf et al.
# Submitted via: CDex 1.50Beta6
#
DISCID=7f075d0a
DTITLE=George Strait - Chill Of An Early Fall
DYEAR=1991
DGENRE=Country
TTITLE0=The Chill Of An Early Fall
TTITLE1=I've Convinced Everybody But Me
TTITLE2=If I Know Me
TTITLE3=You Know Me Better Than That
TTITLE4=Anything You Can Spare
TTITLE5=Home In San Antone
TTITLE6=Lovesick Blues
TTITLE7=Milk Cow Blues
TTITLE8=Her Only Bad Habit Is Me
TTITLE9=Is It Already Time
EXTD=YEAR: 1991
EXTT0=
EXTT1=
EXTT2=
EXTT3=
EXTT4=
EXTT5=
EXTT6=
EXTT7=
EXTT8=
EXTT9=
PLAYORDER=
